<svg xmlns="http://www.w3.org/2000/svg" version="1.1" viewBox="0 168.392 637.843 143.217">
<path fill="#002C5B" d="M66.524 221.57c-17.723-11.216-48.712-8.074-48.712-26.96c0-13.427 8.468-16.09 21.818-16.09 c11.01 0 19.4 2.7 19.4 2.721l2.963 11.211h8.839v-17.616c0 0-13.163-6.44-34.484-6.44C15.069 168.4 0 177.4 0 196.3 c0 18 9.1 25.7 34.8 32.555c19.903 5.3 25.6 9.3 26.3 19.643c1.257 18.587-10.115 21.259-25.072 21.3 c-12.411 0-23.505-5.08-23.505-5.08l-2.752-12.943H0.958v20.096c0 0 18.6 8 36.1 7.962c24.503 0 43.153-4.632 43.153-30.913 C80.166 235.1 76.5 227.9 66.5 221.6"/>
<path fill="#002C5B" d="M496.712 277.563v-5.661l9.797-1.83v-38.4c0-9.349 1.213-17.902-12.304-17.902 c-10.047 0-20.278 4.171-20.278 4.171v52.131l9.802 1.83v5.661h-38.141v-5.661l10.495-1.83v-57.488l-11.015-1.979v-6.127 l27.999 0.009l0.515 4.744c11.789-5.071 21.317-7.662 28.599-7.662c8.315 0 14.4 2.5 18.2 7.3 c3.469 4.3 4 7.8 4 19.478v41.734l11.019 1.83v5.661H496.712z M408.253 240.792c-19.235 0-28.249 4.619-28.249 15.4 c0 10.5 7.3 13.3 12.3 13.296c7.451 0 15.946-4.914 15.946-4.914V240.792L408.253 240.792z M409.117 277.813l-0.52-5.33 c-10.396 5.389-16.984 7.573-24.432 7.573c-12.309 0-22.182-8.348-22.182-24.191c0-24.239 29.109-23.308 46.269-23.469v-3.316 c0-13.31-1.731-17.11-14.384-17.11c-7.277 0-17.316 2.332-17.316 2.332l-1.563 7.733l-7.12 0.022v-14.362 c0 0 15.253-5.702 32.582-5.702c10.222 0 16.1 2.2 19.8 5.545c5.541 5.1 5.5 13.2 5.5 22.812v40.187l10.5 1.498v5.742 L409.117 277.813z M315.189 213.241c-8.839 0-20.279 2.837-20.279 2.837v48.014c0 0 8.7 4.8 18.5 4.8 c11.609 0 17.853-9.977 17.853-27.404C331.305 222.1 325.8 213.2 315.2 213.2 M320.045 279.8 c-15.051 0-25.26-8.128-25.26-8.128l-1.258 5.867h-16.461v-99.061l-11.014-2.059v-6.328l28.862-0.103v37.344 c0 0 12.169-5.366 27.556-5.366c17.499 0 27.7 13 27.7 38.494C350.191 264.9 338.4 279.8 320 279.8 M228.887 214.968c0 0-8.665-1.884-18.546-1.884c-11.61 0-17.849 9.98-17.849 27.404c0 19.3 6.1 28.2 16.6 28.2 c8.844 0 19.759-5.066 19.759-5.066V214.968z M229.747 277.746l-0.519-5.732c0 0-15.078 7.926-27.381 7.9 c-17.513 0-28.254-12.988-28.254-38.498c0-24.401 11.784-39.448 30.156-39.448c13.301 0 22.4 3.6 25.1 5.053v-28.545 l-11.014-2.059v-6.328l28.867-0.103v100.373l11.015 1.853v5.671L229.747 277.746z M161.025 212.605l-32.242 77.9 c-6.924 16.64-13.686 21.066-28.934 21.066c-7.796 0-14.04-2.055-14.04-2.055V292.73h8.316l1.562 10.33c0 0 1.7 0.3 4.2 0.3 c5.371 0 12.478-0.792 18.542-15.838l4.077-9.748l-5.326 0.009l-28.03-65.19l-10.952-1.902v-6.176h37.496v6.176l-8.351 1.9 l21.491 51.32l20.628-51.32l-10.889-1.902v-6.176h33.495v6.176L161.025 212.605z"/>
<polygon fill="#002C5B" points="627.2,269.7 592.2,234.9 617.8,212.6 628.7,210.7 628.7,204.5 592.4,204.5 592.4,210.7 602.4,212.6 578.7,233.6 572.7,233.6 572.7,169.7 543.9,169.8 543.9,176 554.9,177.9 554.9,269.7 544.4,271.6 544.4,277.8 582.5,277.8 582.5,271.6 572.7,269.7 572.7,242.5 579.3,242.5 606.9,270 597.8,271.6 597.8,277.8 637.8,277.8 637.8,271.6"/>
</svg>